# xmcd CD database file
#
# Track frame offsets:
#	150
#	13430
#	32182
#	44110
#	64063
#	84469
#	101277
#	123706
#	139835
#	154243
#	165651
#	194312
#	217119
#	231599
#	255681
#	273312
#
# Disc length: 4035 seconds
#
# Revision: 0
# Processed by: cddbd v1.5.1PL0 Copyright (c) Steve Scherf et al.
# Submitted via: CDex 1.51
#
DISCID=f50fc110
DTITLE=McNeely, Big Jay - Big Jay's Best
DYEAR=2002
DGENRE=Jazz
TTITLE0=Gila Moon
TTITLE1=Zydeco Stroll
TTITLE2=Big Jay Shuffle
TTITLE3=I Can't Stop Loving You
TTITLE4=Something On Your Mind
TTITLE5=To Mom
TTITLE6=Tuff
TTITLE7=3-D
TTITLE8=Deacon's Hop
TTITLE9=Inspect Ball
TTITLE10=Summertime
TTITLE11=Big Fat Mama
TTITLE12=Yellow Moon
TTITLE13=Harlem Nocturne
TTITLE14=We Dream
TTITLE15=Young Girl Blues
EXTD=YEAR: 2002
EXTT0=
EXTT1=
EXTT2=
EXTT3=
EXTT4=
EXTT5=
EXTT6=
EXTT7=
EXTT8=
EXTT9=
EXTT10=
EXTT11=
EXTT12=
EXTT13=
EXTT14=
EXTT15=
PLAYORDER=
